<?xml version="1.0" encoding="iso-8859-1"?>
<!-- Generator: Adobe Illustrator 19.0.0, SVG Export Plug-In . SVG Version: 6.00 Build 0)  -->
<svg xmlns="http://www.w3.org/2000/svg" xmlns:xlink="http://www.w3.org/1999/xlink" version="1.1" id="Capa_1" x="0px" y="0px" viewBox="0 0 512.011 512.011" style="enable-background:new 0 0 512.011 512.011;" xml:space="preserve" width="512px" height="512px">
<g>
	<g>
		<path d="M366.95,290.122H127.993c-4.711,0-8.534,3.823-8.534,8.534v51.205c0,4.711,3.823,8.534,8.534,8.534H366.95    c4.711,0,8.534-3.815,8.534-8.534v-51.205C375.484,293.945,371.661,290.122,366.95,290.122z M358.416,341.327H136.527V307.19    h221.889V341.327z" fill="#fecb00"/>
	</g>
</g>
<g>
	<g>
		<path d="M384.018,238.917H110.924c-4.711,0-8.534,3.823-8.534,8.534v51.205c0,4.711,3.823,8.534,8.534,8.534h273.094    c4.711,0,8.534-3.815,8.534-8.534v-51.205C392.552,242.74,388.729,238.917,384.018,238.917z M375.484,290.122H119.458v-34.137    h256.026V290.122z" fill="#fecb00"/>
	</g>
</g>
<g>
	<g>
		<path d="M179.198,383.998c-4.711,0-8.534,3.823-8.534,8.534v101.335c-14.704-3.806-25.603-17.188-25.603-33.061V349.861    c0-4.711-3.823-8.534-8.534-8.534c-4.711,0-8.534,3.823-8.534,8.534v110.944c0,28.24,22.966,51.205,51.205,51.205    c4.711,0,8.534-3.815,8.534-8.534V392.532C187.732,387.821,183.909,383.998,179.198,383.998z" fill="#fecb00"/>
	</g>
</g>
<g>
	<g>
		<path d="M247.471,42.63c-18.826,0-34.137,15.31-34.137,34.137s15.31,34.137,34.137,34.137s34.137-15.31,34.137-34.137    S266.298,42.63,247.471,42.63z M247.471,93.835c-9.413,0-17.068-7.655-17.068-17.068s7.655-17.068,17.068-17.068    c9.413,0,17.068,7.655,17.068,17.068S256.884,93.835,247.471,93.835z" fill="#fecb00"/>
	</g>
</g>
<g>
	<g>
		<path d="M366.95,238.917c-37.644,0-68.273-30.629-68.273-68.273c0-13.16,1.715-25.961,5.086-38.062    c7.032-25.21,8.193-50.019,3.439-73.77c-0.068-0.333-0.145-0.657-0.256-0.981c0,0-1.707-5.206-2.697-7.877    c-5.359-20.013-17.572-36.134-33.394-44.224c-14.32-7.672-32.618-7.578-46.622-0.077c-15.976,8.167-28.18,24.297-33.539,44.301    c-0.99,2.671-2.697,7.877-2.697,7.877c-0.102,0.324-0.188,0.649-0.256,0.981c-4.745,23.751-3.593,48.568,3.439,73.77    c3.371,12.102,5.086,24.903,5.086,38.062c0,37.644-30.629,68.273-68.273,68.273c-4.711,0-8.534,3.823-8.534,8.534    s3.823,8.534,8.534,8.534H366.95c4.711,0,8.534-3.823,8.534-8.534S371.661,238.917,366.95,238.917z M179.146,238.917    c20.747-15.583,34.188-40.384,34.188-68.273c0-14.704-1.92-29.059-5.701-42.637c-6.264-22.419-7.348-44.395-3.243-65.338    c0.444-1.357,1.724-5.214,2.424-7.049c0.111-0.29,0.205-0.58,0.282-0.879c4.071-15.515,13.151-27.856,25.065-33.949    c9.422-5.052,21.062-5.129,30.791,0.077c11.76,6.008,20.841,18.357,24.911,33.864c0.077,0.299,0.171,0.589,0.282,0.879    c0.7,1.835,1.98,5.692,2.424,7.049c4.105,20.934,3.013,42.918-3.243,65.338c-3.789,13.586-5.709,27.932-5.709,42.645    c0,27.89,13.441,52.69,34.188,68.273H179.146z" fill="#fecb00"/>
	</g>
</g>
<g>
	<g>
		<path d="M256.005,494.942c-7.604,0-25.603-19.876-25.603-51.205v-93.876c0-4.711-3.823-8.534-8.534-8.534h-42.671    c-4.711,0-8.534,3.823-8.534,8.534v93.876c0,33.096,29.912,68.274,85.342,68.274c4.711,0,8.534-3.823,8.534-8.534    C264.54,498.766,260.716,494.942,256.005,494.942z M187.732,443.737v-85.342h25.603v85.342c0,18.255,5.163,34.563,12.707,46.656    C200.789,481.885,187.732,462.726,187.732,443.737z" fill="#fecb00"/>
	</g>
</g>
<g>
	<g>
		<path d="M315.745,435.203c-4.711,0-8.534,3.823-8.534,8.534v17.068c0,4.711,3.823,8.534,8.534,8.534s8.534-3.815,8.534-8.534    v-17.068C324.279,439.026,320.456,435.203,315.745,435.203z" fill="#fecb00"/>
	</g>
</g>
<g>
	<g>
		<path d="M358.416,494.942h-102.41c-8.355,0-25.603-12.52-25.603-51.205v-85.342h76.808v34.137c0,4.711,3.823,8.534,8.534,8.534    s8.534-3.823,8.534-8.534v-42.671c0-4.711-3.823-8.534-8.534-8.534h-93.876c-4.711,0-8.534,3.823-8.534,8.534v93.876    c0,50.096,25.517,68.274,42.671,68.274h102.41c4.711,0,8.534-3.823,8.534-8.534C366.95,498.766,363.126,494.942,358.416,494.942z" fill="#fecb00"/>
	</g>
</g>
<g>
	<g>
		<path d="M273.074,341.327c-4.711,0-8.534,3.823-8.534,8.534v34.137c0,4.711,3.823,8.534,8.534,8.534s8.534-3.815,8.534-8.534    v-34.137C281.608,345.15,277.785,341.327,273.074,341.327z" fill="#fecb00"/>
	</g>
</g>
<g>
	<g>
		<path d="M273.074,418.135c-4.711,0-8.534,3.823-8.534,8.534v76.808c0,4.711,3.823,8.534,8.534,8.534s8.534-3.815,8.534-8.534    v-76.808C281.608,421.958,277.785,418.135,273.074,418.135z" fill="#fecb00"/>
	</g>
</g>
<g>
	<g>
		<path d="M401.087,494.942c-18.826,0-34.137-15.31-34.137-34.137V349.861c0-4.711-3.823-8.534-8.534-8.534h-59.739    c-4.711,0-8.534,3.823-8.534,8.534c0,4.711,3.823,8.534,8.534,8.534h51.205v102.41c0,13.1,4.95,25.073,13.074,34.137h-4.54    c-18.826,0-34.137-15.31-34.137-34.137c0-4.711-3.823-8.534-8.534-8.534s-8.534,3.823-8.534,8.534    c0,28.24,22.965,51.205,51.205,51.205h42.671c4.711,0,8.534-3.823,8.534-8.534C409.621,498.766,405.797,494.942,401.087,494.942z" fill="#fecb00"/>
	</g>
</g>
<g>
</g>
<g>
</g>
<g>
</g>
<g>
</g>
<g>
</g>
<g>
</g>
<g>
</g>
<g>
</g>
<g>
</g>
<g>
</g>
<g>
</g>
<g>
</g>
<g>
</g>
<g>
</g>
<g>
</g>
</svg>
