<?xml version="1.0" encoding="utf-8"?>
<!-- Generator: Adobe Illustrator 21.0.2, SVG Export Plug-In . SVG Version: 6.00 Build 0)  -->
<svg version="1.1"
	 id="svg7457" inkscape:version="0.92.3 (2405546, 2018-03-11)" sodipodi:docname="logo8dvi.svg" xmlns:cc="http://creativecommons.org/ns#" xmlns:dc="http://purl.org/dc/elements/1.1/" xmlns:inkscape="http://www.inkscape.org/namespaces/inkscape" xmlns:rdf="http://www.w3.org/1999/02/22-rdf-syntax-ns#" xmlns:sodipodi="http://sodipodi.sourceforge.net/DTD/sodipodi-0.dtd" xmlns:svg="http://www.w3.org/2000/svg"
	 xmlns="http://www.w3.org/2000/svg" xmlns:xlink="http://www.w3.org/1999/xlink" x="0px" y="0px" viewBox="0 0 257.3 95"
	 style="enable-background:new 0 0 257.3 95;" xml:space="preserve">
<style type="text/css">
	.st0{enable-background:new    ;}
	.st1{fill:#00519C;}
	.st2{font-family:'Lato-Regular';}
	.st3{font-size:28.247px;}
	.st4{fill:#FECB00;fill-opacity:0.3922;}
	.st5{font-family:'TimesNewRomanPSMT';}
	.st6{font-size:24px;}
</style>
<g class="st0">
	<text transform="matrix(1 0 0 1 91.6714 91.9856)" class="st1 st2 st3"> </text>
</g>
<rect id="rect6114" x="28.4" y="4.7" class="st4" width="6.1" height="83.1"/>
<rect id="rect6114-7" x="2.6" y="56" class="st4" width="232.4" height="6.1"/>
<text transform="matrix(1 0 0 1 235.0001 34.5)" class="st1 st5 st6">*</text>
<g class="st0">
	<path class="st1" d="M62,42.7H46.6L43.9,49c-0.7,1.5-1,2.7-1,3.5c0,0.6,0.3,1.1,0.9,1.6c0.6,0.5,1.8,0.8,3.7,0.9V56H35v-1.1
		c1.7-0.3,2.7-0.7,3.2-1.1c1-0.9,2.1-2.8,3.3-5.7l14-32.7h1l13.8,33c1.1,2.7,2.1,4.4,3,5.2s2.2,1.2,3.8,1.3V56H61.5v-1.1
		c1.6-0.1,2.7-0.3,3.2-0.8s0.8-1,0.8-1.6c0-0.9-0.4-2.2-1.2-4.1L62,42.7z M61.1,40.5l-6.7-16.1l-6.9,16.1H61.1z M55.9,6.2
		c1.6,0,2.9,0.5,4,1.6c1.1,1.1,1.6,2.4,1.6,4c0,1.6-0.5,2.9-1.6,4c-1.1,1.1-2.4,1.6-4,1.6c-1.5,0-2.9-0.5-4-1.6
		c-1.1-1.1-1.6-2.4-1.6-4c0-1.5,0.5-2.9,1.6-4S54.4,6.2,55.9,6.2z M55.9,8.2c-1,0-1.8,0.3-2.5,1c-0.7,0.7-1,1.5-1,2.5
		c0,1,0.3,1.8,1,2.5c0.7,0.7,1.5,1.1,2.5,1.1s1.8-0.4,2.5-1.1c0.7-0.7,1-1.5,1-2.5c0-1-0.3-1.8-1-2.5C57.8,8.5,56.9,8.2,55.9,8.2z"
		/>
	<path class="st1" d="M78.3,29.2H91v1.1h-0.8c-0.8,0-1.3,0.2-1.7,0.6s-0.6,0.9-0.6,1.5c0,0.7,0.2,1.5,0.6,2.4l6.2,14.8l6.3-15.4
		c0.4-1.1,0.7-1.9,0.7-2.5c0-0.3-0.1-0.5-0.2-0.7c-0.2-0.3-0.5-0.5-0.8-0.6s-1-0.2-2-0.2v-1.1h8.8v1.1c-1,0.1-1.7,0.3-2.1,0.6
		c-0.7,0.6-1.3,1.6-1.8,2.9l-9.5,23h-1.2L83,34.2c-0.4-1.1-0.8-1.8-1.2-2.3c-0.4-0.5-0.9-0.8-1.5-1.2c-0.3-0.2-1-0.3-2-0.5V29.2z"/>
	<path class="st1" d="M114.2,39.3c0,4,0.9,7.1,2.9,9.4c2,2.3,4.2,3.4,6.9,3.4c1.8,0,3.3-0.5,4.6-1.5s2.4-2.6,3.3-5l0.9,0.6
		c-0.4,2.7-1.6,5.1-3.6,7.3s-4.4,3.3-7.4,3.3c-3.2,0-6-1.3-8.3-3.8s-3.4-5.9-3.4-10.1c0-4.6,1.2-8.2,3.5-10.7s5.3-3.9,8.9-3.9
		c3,0,5.5,1,7.4,3s2.9,4.6,2.9,8H114.2z M114.2,37.6h12.4c-0.1-1.7-0.3-2.9-0.6-3.6c-0.5-1.1-1.2-2-2.2-2.6s-2-0.9-3-0.9
		c-1.6,0-3.1,0.6-4.4,1.9S114.4,35.3,114.2,37.6z"/>
	<path class="st1" d="M144.2,28.4v6c2.2-4,4.6-6,6.9-6c1.1,0,2,0.3,2.7,1s1.1,1.4,1.1,2.3c0,0.8-0.3,1.4-0.8,1.9s-1.1,0.8-1.8,0.8
		c-0.7,0-1.5-0.3-2.3-1s-1.5-1-1.9-1c-0.4,0-0.7,0.2-1.1,0.6c-0.9,0.8-1.8,2.1-2.7,4v12.9c0,1.5,0.2,2.6,0.6,3.4
		c0.3,0.5,0.7,1,1.3,1.3s1.6,0.5,2.8,0.5V56h-13.7v-1.1c1.4,0,2.4-0.2,3-0.6c0.5-0.3,0.8-0.8,1-1.5c0.1-0.3,0.1-1.3,0.1-2.8V39.6
		c0-3.1-0.1-5-0.2-5.6s-0.4-1-0.7-1.3s-0.8-0.4-1.3-0.4c-0.6,0-1.3,0.1-2.1,0.4l-0.3-1.1l8.1-3.3H144.2z"/>
	<path class="st1" d="M163.7,33.8c2.6-3.6,5.4-5.4,8.4-5.4c2.8,0,5.2,1.2,7.2,3.5s3.1,5.6,3.1,9.7c0,4.8-1.6,8.6-4.7,11.5
		c-2.7,2.5-5.7,3.8-9.1,3.8c-1.6,0-3.1-0.3-4.8-0.8s-3.3-1.4-4.9-2.5V25.6c0-3-0.1-4.9-0.2-5.6s-0.4-1.2-0.7-1.4s-0.7-0.4-1.2-0.4
		c-0.5,0-1.2,0.2-2.1,0.5l-0.4-1l8.1-3.3h1.3V33.8z M163.7,35.7v16.1c1,1,2,1.7,3.1,2.2s2.2,0.7,3.3,0.7c1.8,0,3.4-1,5-2.9
		s2.3-4.8,2.3-8.5c0-3.4-0.8-6.1-2.3-7.9s-3.3-2.8-5.2-2.8c-1,0-2.1,0.3-3.1,0.8C165.9,33.7,164.9,34.5,163.7,35.7z"/>
	<path class="st1" d="M195.6,28.4v21.6c0,1.7,0.1,2.8,0.4,3.4s0.6,1,1.1,1.2s1.4,0.4,2.6,0.4V56h-13v-1.1c1.3,0,2.2-0.1,2.6-0.4
		s0.8-0.7,1.1-1.3s0.4-1.7,0.4-3.4V39.6c0-2.9-0.1-4.8-0.3-5.7c-0.1-0.6-0.4-1.1-0.6-1.3s-0.7-0.4-1.2-0.4c-0.5,0-1.2,0.1-2,0.4
		l-0.4-1.1l8.1-3.3H195.6z M193.1,14.3c0.8,0,1.5,0.3,2.1,0.9s0.9,1.3,0.9,2.1s-0.3,1.5-0.9,2.1s-1.3,0.9-2.1,0.9s-1.5-0.3-2.1-0.9
		s-0.9-1.3-0.9-2.1s0.3-1.5,0.9-2.1S192.3,14.3,193.1,14.3z"/>
	<path class="st1" d="M212.2,14.3v35.6c0,1.7,0.1,2.8,0.4,3.3s0.6,1,1.1,1.2s1.5,0.4,2.8,0.4V56h-13.2v-1.1c1.2,0,2.1-0.1,2.5-0.4
		s0.8-0.7,1.1-1.3s0.4-1.7,0.4-3.4V25.6c0-3-0.1-4.9-0.2-5.6s-0.4-1.2-0.7-1.4s-0.7-0.4-1.2-0.4c-0.5,0-1.2,0.2-1.9,0.5l-0.5-1
		l8-3.3H212.2z"/>
	<path class="st1" d="M227.4,20.3v8.8h6.3v2.1h-6.3v17.4c0,1.7,0.2,2.9,0.7,3.5s1.1,0.9,1.9,0.9c0.6,0,1.3-0.2,1.9-0.6
		s1.1-1,1.4-1.8h1.1c-0.7,1.9-1.7,3.4-2.9,4.3s-2.5,1.5-3.9,1.5c-0.9,0-1.8-0.2-2.6-0.7s-1.5-1.2-1.9-2.1s-0.6-2.4-0.6-4.3v-18h-4.2
		v-1c1.1-0.4,2.2-1.2,3.3-2.2s2.1-2.2,3-3.6c0.4-0.7,1.1-2.1,1.9-4.1H227.4z"/>
</g>
</svg>
