<?xml version="1.0" encoding="utf-8"?>
<!-- Generator: Adobe Illustrator 22.0.1, SVG Export Plug-In . SVG Version: 6.00 Build 0)  -->
<svg version="1.1" id="Layer_1" xmlns="http://www.w3.org/2000/svg" xmlns:xlink="http://www.w3.org/1999/xlink" x="0px" y="0px"
	 viewBox="0 0 142 44" style="enable-background:new 0 0 142 44;" xml:space="preserve">
<style type="text/css">
	.st0{fill:#FFFFFF;}
	.st1{fill:#3E5847;}
	.st2{fill:#A0A89F;}
</style>
<rect y="0.3" class="st0" width="142" height="43.4"/>
<path class="st1" d="M137.3,3.1L137.3,3.1c0.5,0,0.8-0.4,0.8-0.8c0-0.3-0.2-0.7-0.9-0.7h-1.2v2.8h0.4V3.1h0.3c0.3,0,0.5,0.1,0.8,0.7
	l0.2,0.4h0.5l-0.3-0.5C137.7,3.4,137.5,3.2,137.3,3.1z M137,2.8h-0.6V1.9h0.7c0.3,0,0.5,0.2,0.5,0.4C137.6,2.6,137.3,2.8,137,2.8z"
	/>
<path class="st1" d="M137,0.3c-1.4,0-2.5,1.2-2.5,2.6c0,1.4,1.1,2.6,2.5,2.6c1.4,0,2.5-1.2,2.5-2.6C139.6,1.5,138.4,0.3,137,0.3z
	 M137,5.1c-1.2,0-2.1-1-2.1-2.2c0-1.2,0.9-2.2,2.1-2.2c1.2,0,2.1,1,2.1,2.2C139.1,4.1,138.2,5.1,137,5.1z"/>
<path class="st1" d="M9.8,9.7C9.8,9.7,9.8,9.7,9.8,9.7C9.8,9.7,9.8,9.7,9.8,9.7L9.8,9.7z"/>
<path class="st1" d="M91.5,9.7C91.5,9.7,91.5,9.7,91.5,9.7C91.5,9.7,91.5,9.7,91.5,9.7L91.5,9.7z"/>
<path class="st1" d="M132,33.1L132,33.1l0-30.4l0-2.3c0,0-7.4,0-7.4,0c0,0,0,0,0,0c0,0,0,0,0,0.1v30.3v2.3l0.2,0L132,33.1L132,33.1
	L132,33.1L132,33.1z"/>
<path class="st1" d="M51.7,8.1v22.7v2.3h0.2h7.3c0,0,0,0,0,0c0,0,0,0,0-0.1V10.3V8v0h0H59c0,0-6.8,0-7.2,0h-0.1V8.1z"/>
<polygon class="st1" points="51.7,33.1 51.7,33.1 51.7,33.1 "/>
<path class="st1" d="M65.1,7.9c-1.1,0-1.9,0.3-2.5,0.9c-1.2,1.3-1.1,3.5-1.1,4.5c0,0.2,0,0.3,0,0.4v13.5c0,0.1,0,0.2,0,0.4
	c0,1.1-0.1,3.3,1,4.5c0.6,0.6,1.4,0.9,2.5,0.9h2h9.8c1.1,0,1.9-0.3,2.5-0.9c1.2-1.3,1.1-3.5,1.1-4.5c0-0.2,0-0.3,0-0.4V13.8
	c0-0.1,0-0.2,0-0.4c0-1.1,0.1-3.3-1-4.5c-0.6-0.6-1.4-0.9-2.5-0.9H65.1z M72.3,27.1c-0.3,0.3-0.8,0.5-1.3,0.5c-0.6,0-1-0.2-1.4-0.5
	c-0.6-0.7-0.6-1.7-0.6-2.1v-0.1v-8.7v-0.1c0-0.4,0-1.5,0.6-2.1c0.3-0.3,0.8-0.5,1.3-0.5c0.6,0,1,0.2,1.4,0.5
	c0.6,0.7,0.6,1.7,0.6,2.1v0.1v8.7v0.1C72.9,25.3,72.9,26.4,72.3,27.1z"/>
<path class="st1" d="M107.5,8c-1.4,0-2,0.3-2.6,0.9c-1.2,1.3-1.1,3.5-1.1,4.5c0,0.2,0,0.3,0,0.4v15.5c0,1.2,0.3,2.1,1,2.7
	c0.5,0.5,1.6,1,3.6,1l13.7,0V33v-5.5H122h-8.1c0,0,0,0-0.4,0c-2.2,0-2.5-1-2.5-3.9v-0.1h0.5h3.3h7.4v-0.1v-9.5c0,0,0-0.1,0-0.2
	c0.1-2.2-0.3-3.8-1.2-4.7c-0.6-0.6-1.4-0.9-2.6-0.9H107.5z M110.9,19.1v-3.9c0,0-0.2-1.7,1.9-1.7c2.1,0,1.9,1.7,1.9,1.7l0,3.9H110.9
	z"/>
<path class="st1" d="M34.8,32.5v-7.7v-8.6V8.4V8h-0.5h-6.1v0h-0.8v1.2l0,1.7c0,0-0.6-1.9-2.6-2.6c-1.4-0.5-3.2-0.4-3.2-0.4
	c-2.9,0-3.9,0.7-4.7,1.8c-1,1.3-0.8,4.8-0.8,5.2v1.4v3.1v2.4v3.1v1.4c0,0.4-0.2,3.9,0.8,5.2c0.9,1.1,1.9,1.8,4.7,1.8
	c0,0,1.8,0.1,3.2-0.4c2-0.7,2.6-2.6,2.6-2.6l0,1.7v1.2h0.8v0h6.1h0.6V32.5z M27.4,24.8L27.4,24.8L27.4,24.8c0,0.5,0,1.6-0.6,2.2
	c-0.3,0.3-0.8,0.5-1.4,0.5c-0.5,0-1-0.2-1.3-0.5c-0.6-0.7-0.6-1.7-0.6-2.1l0-0.1v0v-8.6v0l0-0.1c0-0.4,0-1.5,0.6-2.1
	c0.3-0.3,0.8-0.5,1.3-0.5c0.6,0,1,0.2,1.4,0.5c0.6,0.7,0.6,1.7,0.6,2.1l0,0.1v0V24.8z"/>
<path class="st1" d="M101.5,32.8V13.7v-0.6c0-1.6-0.1-3.5-1.4-4.4c-0.3-0.2-1-0.9-3.7-0.9c0,0,0,0,0,0c-0.1,0-0.3,0-0.5,0
	c-1,0-1.7,0.2-2.1,0.3c-1.3,0.3-2.7,0.9-3.6,2.1V8l0,0h0H90c0,0-6,0-7.1,0h-0.2v0.1V33v0.1H90h0.2l0-0.3V15.5c0-1.1,0.4-2,1.9-2
	c1.4,0,2,0.8,2,2.3v17.1l0,0.3h0.2l7,0h0.2V32.8z"/>
<path class="st1" d="M8.4,10.6v-0.4V8l0,0h0H8.3H1.1h0h0v0.1v0V33v0.1h0.1h6.8h0.5h0.1V33c0,0,0-1.1,0,0.1V15.6v-1
	c0,0,1.9,0,3.6,0.5c1.8,0.5,2.5,0.9,2.5,0.9V8C14.6,8,10.5,7.6,8.4,10.6z"/>
<path class="st1" d="M49.9,33.1h-5.6h-2c-1.1,0-1.9-0.3-2.5-0.9c-1.2-1.3-1.1-3.5-1.1-4.5c0-0.2,0-0.3,0-0.4V15.1v-0.3h-0.3h-0.3
	h-1.3h-0.1h-0.1v-0.1h0c0-0.8,0-6.5,0-6.5V8v0v0l0,0H38h0.4h0.3V7.7V5.4V3.1v0V3h0h0H46h0.1h0l0,0v2.3v2.5V8h0.3h1.1h2.2h0l0,0v6.8
	c0,0,0,0,0,0c0,0,0,0-0.1,0h-2.2h-1h-0.3v0.3v10.2c0,0,0,0.1,0,0.1c0,0.4,0,1.1,0.5,1.6c0.3,0.3,0.8,0.5,1.5,0.5h1.7
	c0.1,0,0.1,0,0.1,0c0,0,0,0,0,0c0,0,0,5.4,0,5.4L49.9,33.1L49.9,33.1L49.9,33.1z"/>
<polygon class="st1" points="51.7,0.4 51.7,2.8 51.7,5.1 59.2,5.1 59.2,5.1 59.2,2.7 59.2,0.5 59.2,0.4 "/>
<g>
	<path class="st1" d="M63.6,41.6L63.6,41.6c-0.2,0.4-0.5,0.6-1.2,0.6c-1.2,0-1.6-0.6-1.6-2.3s0.3-2.3,1.5-2.3c0.5,0,0.9,0.1,1.2,0.6
		h0v-2.4h0.6v6.4h-0.6V41.6z M62.5,41.7c0.9,0,1.1-0.3,1.1-2c0-1.1-0.3-1.5-1.1-1.5c-0.9,0-1.1,0.2-1.1,1.7
		C61.4,41.5,61.6,41.7,62.5,41.7z"/>
	<path class="st1" d="M65.8,37.7h0.6v0.5h0c0.2-0.4,0.5-0.6,1-0.6c0.7,0,1,0.3,1,1.2v0.4H68c0-0.8-0.1-1.1-0.7-1.1
		c-0.6,0-0.9,0.3-0.9,0.9v3.1h-0.6V37.7z"/>
	<path class="st1" d="M70.1,40v0.4c0,1,0.2,1.3,0.9,1.3c0.9,0,1.1,0,1.1-0.9h0.6V41c0,0.9-0.2,1.2-1.6,1.2c-1.5,0-1.7-0.5-1.7-2.3
		c0-1.9,0.3-2.3,1.7-2.3c1.3,0,1.6,0.5,1.6,1.8V40H70.1z M72.2,39.5c0-0.9,0-1.4-1-1.4s-1,0.4-1,1.4H72.2z"/>
	<path class="st1" d="M74,37.7h0.6l1.1,3.9h0l1.1-3.9h0.6L76,42.1h-0.8L74,37.7z"/>
	<path class="st1" d="M79,40v0.4c0,1,0.2,1.3,0.9,1.3c0.9,0,1.1,0,1.1-0.9h0.6V41c0,0.9-0.2,1.2-1.6,1.2c-1.5,0-1.7-0.5-1.7-2.3
		c0-1.9,0.3-2.3,1.7-2.3c1.3,0,1.6,0.5,1.6,1.8V40H79z M81.1,39.5c0-0.9,0-1.4-1-1.4c-1,0-1,0.4-1,1.4H81.1z"/>
	<path class="st1" d="M83.4,38.2h-0.5v-0.5h0.5v-1H84v1h1.4v0.5H84v3c0,0.4,0.1,0.5,0.5,0.5c0.4,0,0.6-0.1,0.6-1.1h0.5
		c0,1.4-0.5,1.6-1.1,1.6c-0.8,0-1.1-0.3-1.1-0.9V38.2z"/>
	<path class="st1" d="M92.6,41.8c-0.3,0.4-0.6,0.5-1.3,0.5c-1.1,0-1.4-0.5-1.4-1.4c0-0.9,0.2-1.4,1.4-1.4c0.9,0,1,0.1,1.2,0.4h0V39
		c0-0.7-0.1-0.9-1-0.9c-0.9,0-0.9,0.2-0.9,0.8h-0.6v-0.2c0-0.5,0.1-1.1,1.5-1.1c1.2,0,1.5,0.4,1.5,1.3v3.3h-0.5V41.8z M91.6,41.7
		c0.7,0,1.1-0.2,1.1-0.9c0-0.7-0.3-0.9-1.1-0.9c-0.7,0-1.1,0.2-1.1,0.9C90.5,41.5,90.8,41.7,91.6,41.7z"/>
	<path class="st1" d="M95.1,38.2h-0.6v-0.5h0.6v-0.8c0-0.8,0.4-1.1,1.2-1.1c0.1,0,0.3,0,0.4,0v0.5c-0.1,0-0.2,0-0.4,0
		c-0.4,0-0.6,0.1-0.6,0.6v0.8h1v0.5h-1v4h-0.6V38.2z"/>
	<path class="st1" d="M103.6,41.6L103.6,41.6c-0.2,0.4-0.5,0.6-1.2,0.6c-1.2,0-1.6-0.6-1.6-2.3s0.3-2.3,1.5-2.3
		c0.5,0,0.9,0.1,1.2,0.6h0v-2.4h0.6v6.4h-0.6V41.6z M102.5,41.7c0.9,0,1.1-0.3,1.1-2c0-1.1-0.3-1.5-1.1-1.5c-0.9,0-1.1,0.2-1.1,1.7
		C101.4,41.5,101.6,41.7,102.5,41.7z"/>
	<path class="st1" d="M106.4,40v0.4c0,1,0.2,1.3,0.9,1.3c0.9,0,1.1,0,1.1-0.9h0.6V41c0,0.9-0.2,1.2-1.6,1.2c-1.5,0-1.7-0.5-1.7-2.3
		c0-1.9,0.3-2.3,1.7-2.3c1.3,0,1.6,0.5,1.6,1.8V40H106.4z M108.4,39.5c0-0.9,0-1.4-1-1.4c-1,0-1,0.4-1,1.4H108.4z"/>
	<path class="st1" d="M110.7,38.2h-0.5v-0.5h0.5v-1h0.6v1h1.4v0.5h-1.4v3c0,0.4,0.1,0.5,0.5,0.5c0.4,0,0.6-0.1,0.6-1.1h0.5
		c0,1.4-0.5,1.6-1.1,1.6c-0.8,0-1.1-0.3-1.1-0.9V38.2z"/>
	<path class="st1" d="M116.9,41.8c-0.3,0.4-0.6,0.5-1.3,0.5c-1.1,0-1.4-0.5-1.4-1.4c0-0.9,0.2-1.4,1.4-1.4c0.9,0,1,0.1,1.2,0.4h0V39
		c0-0.7-0.1-0.9-1-0.9c-0.9,0-0.9,0.2-0.9,0.8h-0.6v-0.2c0-0.5,0.1-1.1,1.5-1.1c1.2,0,1.5,0.4,1.5,1.3v3.3h-0.5V41.8z M115.8,41.7
		c0.7,0,1.1-0.2,1.1-0.9c0-0.7-0.3-0.9-1.1-0.9c-0.7,0-1.1,0.2-1.1,0.9C114.7,41.5,115,41.7,115.8,41.7z"/>
	<path class="st1" d="M119.1,35.8h0.6v6.4h-0.6V35.8z"/>
	<path class="st1" d="M121.6,37.7h0.6V43c0,0.5-0.3,0.7-0.8,0.7c-0.1,0-0.1,0-0.2,0v-0.5c0.3,0,0.4,0,0.4-0.4V37.7z M121.6,35.8h0.6
		v0.7h-0.6V35.8z"/>
	<path class="st1" d="M124.5,40v0.4c0,1,0.2,1.3,0.9,1.3c0.9,0,1.1,0,1.1-0.9h0.6V41c0,0.9-0.2,1.2-1.6,1.2c-1.5,0-1.7-0.5-1.7-2.3
		c0-1.9,0.3-2.3,1.7-2.3c1.3,0,1.6,0.5,1.6,1.8V40H124.5z M126.6,39.5c0-0.9,0-1.4-1-1.4c-1,0-1,0.4-1,1.4H126.6z"/>
	<path class="st1" d="M128.7,37.7h0.6v0.6h0c0.3-0.5,0.6-0.6,1.2-0.6c1,0,1.3,0.5,1.3,1.4v3.2h-0.6v-3c0-0.5-0.1-1-0.9-1
		c-0.7,0-1.2,0.3-1.2,1.2v2.8h-0.6V37.7z"/>
</g>
</svg>
